<svg xmlns="http://www.w3.org/2000/svg" xmlns:xlink="http://www.w3.org/1999/xlink" width="349pt" height="354pt" viewBox="0.00 0.00 349.00 354.00">
<g id="graph0" class="graph" transform="scale(1 1) rotate(0) translate(4 349.72)">
<title>G</title>
<polygon fill="white" stroke="none" points="-4,4 -4,-349.72 344.95,-349.72 344.95,4 -4,4"/>
<!-- Barranquilla&#45;&#45;Cartagena -->
<g id="edge9" class="edge">
<title>Barranquilla--Cartagena</title>
<path fill="none" stroke="#333333" d="M254.59,-289.17C249.56,-287.67 244.46,-286.15 239.53,-284.68"/>
<text xml:space="preserve" text-anchor="middle" x="247.02" y="-277.91" font-family="Segoe UI" font-size="10.00">100</text>
</g>
<!-- Medellin&#45;&#45;Cartagena -->
<g id="edge3" class="edge">
<title>Medellin--Cartagena</title>
<path fill="none" stroke="#333333" d="M144.67,-286.06C151.7,-284.61 159.13,-283.07 166.27,-281.59"/>
<text xml:space="preserve" text-anchor="middle" x="155.43" y="-274.83" font-family="Segoe UI" font-size="10.00">600</text>
</g>
<!-- Pereira&#45;&#45;Medellin -->
<g id="edge2" class="edge">
<title>Pereira--Medellin</title>
<path fill="none" stroke="#333333" d="M61.67,-253.43C68.64,-259.08 76.39,-265.35 83.62,-271.2"/>
<text xml:space="preserve" text-anchor="middle" x="65.05" y="-265.24" font-family="Segoe UI" font-size="10.00">200</text>
</g>
<!-- Manizales&#45;&#45;Pereira -->
<g id="edge11" class="edge">
<title>Manizales--Pereira</title>
<path fill="none" stroke="#333333" d="M38.13,-111.57C38.33,-140.37 38.6,-179.21 38.78,-205.59"/>
<text xml:space="preserve" text-anchor="middle" x="33.46" y="-162.49" font-family="Segoe UI" font-size="10.00">50</text>
</g>
<!-- Cali&#45;&#45;Pereira -->
<g id="edge1" class="edge">
<title>Cali--Pereira</title>
<path fill="none" stroke="#333333" d="M119.39,-153.93C103.37,-170.09 77.78,-195.92 59.78,-214.09"/>
<text xml:space="preserve" text-anchor="middle" x="82.83" y="-186.26" font-family="Segoe UI" font-size="10.00">150</text>
</g>
<!-- Cali&#45;&#45;Manizales -->
<g id="edge10" class="edge">
<title>Cali--Manizales</title>
<path fill="none" stroke="#333333" d="M116.6,-126.85C103.44,-117.89 85.13,-105.41 69.48,-94.75"/>
<text xml:space="preserve" text-anchor="middle" x="86.47" y="-114.44" font-family="Segoe UI" font-size="10.00">180</text>
</g>
<!-- Cali&#45;&#45;Armenia -->
<g id="edge4" class="edge">
<title>Cali--Armenia</title>
<path fill="none" stroke="#333333" d="M137.81,-117.61C140.2,-103.2 143.4,-83.87 146.13,-67.39"/>
<text xml:space="preserve" text-anchor="middle" x="134.34" y="-96.28" font-family="Segoe UI" font-size="10.00">100</text>
</g>
<!-- Cali&#45;&#45;Bogota -->
<g id="edge12" class="edge">
<title>Cali--Bogota</title>
<path fill="none" stroke="#333333" d="M154.71,-145.58C164.45,-148.77 176.27,-152.64 186.86,-156.1"/>
<text xml:space="preserve" text-anchor="middle" x="177.97" y="-153.74" font-family="Segoe UI" font-size="10.00">450</text>
</g>
<!-- Armenia&#45;&#45;Ibague -->
<g id="edge5" class="edge">
<title>Armenia--Ibague</title>
<path fill="none" stroke="#333333" d="M185.18,-39.37C206.03,-42.9 232.55,-47.39 252.3,-50.73"/>
<text xml:space="preserve" text-anchor="middle" x="211.65" y="-48.12" font-family="Segoe UI" font-size="10.00">120</text>
</g>
<!-- Ibague&#45;&#45;Bogota -->
<g id="edge6" class="edge">
<title>Ibague--Bogota</title>
<path fill="none" stroke="#333333" d="M265.76,-80.15C255.26,-97.87 241.13,-121.7 230.49,-139.66"/>
<text xml:space="preserve" text-anchor="middle" x="240.68" y="-112.81" font-family="Segoe UI" font-size="10.00">200</text>
</g>
<!-- Bogota&#45;&#45;Cartagena -->
<g id="edge13" class="edge">
<title>Bogota--Cartagena</title>
<path fill="none" stroke="#333333" d="M212,-195.04C210.6,-207.84 208.95,-222.96 207.47,-236.52"/>
<text xml:space="preserve" text-anchor="middle" x="199.76" y="-218.5" font-family="Segoe UI" font-size="10.00">1000</text>
</g>
<!-- Bogota&#45;&#45;Tunja -->
<g id="edge7" class="edge">
<title>Bogota--Tunja</title>
<path fill="none" stroke="#333333" d="M244.76,-170.36C257.74,-172.54 272.83,-175.08 285.34,-177.18"/>
<text xml:space="preserve" text-anchor="middle" x="257.73" y="-176.8" font-family="Segoe UI" font-size="10.00">150</text>
</g>
<!-- Tunja&#45;&#45;Barranquilla -->
<g id="edge8" class="edge">
<title>Tunja--Barranquilla</title>
<path fill="none" stroke="#333333" d="M308.04,-207.32C306.32,-222.09 304.11,-241.02 302.13,-258.06"/>
<text xml:space="preserve" text-anchor="middle" x="297.68" y="-234.84" font-family="Segoe UI" font-size="10.00">700</text>
</g>
<!-- Barranquilla -->
<g id="node1" class="node">
<title>Barranquilla</title>
<ellipse fill="#f0f4ff" stroke="black" cx="297.04" cy="-301.81" rx="43.91" ry="43.91"/>
<text xml:space="preserve" text-anchor="middle" x="297.04" y="-298.51" font-family="Segoe UI" font-size="11.00">Barranquilla</text>
</g>
<!-- Cartagena -->
<g id="node2" class="node">
<title>Cartagena</title>
<ellipse fill="#f0f4ff" stroke="black" cx="203.38" cy="-273.91" rx="37.48" ry="37.48"/>
<text xml:space="preserve" text-anchor="middle" x="203.38" y="-270.61" font-family="Segoe UI" font-size="11.00">Cartagena</text>
</g>
<!-- Medellin -->
<g id="node3" class="node">
<title>Medellin</title>
<ellipse fill="#f0f4ff" stroke="black" cx="110.67" cy="-293.1" rx="34.47" ry="34.47"/>
<text xml:space="preserve" text-anchor="middle" x="110.67" y="-289.8" font-family="Segoe UI" font-size="11.00">Medellin</text>
</g>
<!-- Pereira -->
<g id="node4" class="node">
<title>Pereira</title>
<ellipse fill="#f0f4ff" stroke="black" cx="38.99" cy="-235.08" rx="29.17" ry="29.17"/>
<text xml:space="preserve" text-anchor="middle" x="38.99" y="-231.78" font-family="Segoe UI" font-size="11.00">Pereira</text>
</g>
<!-- Manizales -->
<g id="node5" class="node">
<title>Manizales</title>
<ellipse fill="#f0f4ff" stroke="black" cx="37.86" cy="-73.21" rx="37.86" ry="37.86"/>
<text xml:space="preserve" text-anchor="middle" x="37.86" y="-69.91" font-family="Segoe UI" font-size="11.00">Manizales</text>
</g>
<!-- Cali -->
<g id="node6" class="node">
<title>Cali</title>
<ellipse fill="#f0f4ff" stroke="black" cx="134.28" cy="-138.9" rx="21.24" ry="21.24"/>
<text xml:space="preserve" text-anchor="middle" x="134.28" y="-135.6" font-family="Segoe UI" font-size="11.00">Cali</text>
</g>
<!-- Armenia -->
<g id="node7" class="node">
<title>Armenia</title>
<ellipse fill="#f0f4ff" stroke="black" cx="151.71" cy="-33.71" rx="33.71" ry="33.71"/>
<text xml:space="preserve" text-anchor="middle" x="151.71" y="-30.41" font-family="Segoe UI" font-size="11.00">Armenia</text>
</g>
<!-- Ibague -->
<g id="node8" class="node">
<title>Ibague</title>
<ellipse fill="#f0f4ff" stroke="black" cx="280.38" cy="-55.48" rx="28.41" ry="28.41"/>
<text xml:space="preserve" text-anchor="middle" x="280.38" y="-52.18" font-family="Segoe UI" font-size="11.00">Ibague</text>
</g>
<!-- Bogota -->
<g id="node9" class="node">
<title>Bogota</title>
<ellipse fill="#f0f4ff" stroke="black" cx="215.23" cy="-165.39" rx="29.56" ry="29.56"/>
<text xml:space="preserve" text-anchor="middle" x="215.23" y="-162.09" font-family="Segoe UI" font-size="11.00">Bogota</text>
</g>
<!-- Tunja -->
<g id="node10" class="node">
<title>Tunja</title>
<ellipse fill="#f0f4ff" stroke="black" cx="311.04" cy="-181.51" rx="25.77" ry="25.77"/>
<text xml:space="preserve" text-anchor="middle" x="311.04" y="-178.21" font-family="Segoe UI" font-size="11.00">Tunja</text>
</g>
</g>
</svg>